{
  "accessors": [
    {
      "bufferView": 2,
      "componentType": 5126,
      "count": 1160,
      "max": [
        185.19778442382813,
        52.33599090576172,
        161.3085479736328
      ],
      "min": [
        80.5262222290039,
        -52.335548400878906,
        -0.3805199861526489
      ],
      "type": "VEC3"
    },
    {
      "bufferView": 2,
      "byteOffset": 13920,
      "componentType": 5126,
      "count": 1160,
      "max": [
        0.9999997019767761,
        0.9999996423721313,
        1.0
      ],
      "min": [
        -0.9999997019767761,
        -0.9999997019767761,
        -1.0
      ],
      "type": "VEC3"
    },
    {
      "bufferView": 3,
      "componentType": 5126,
      "count": 1160,
      "max": [
        1.0,
        1.0,
        0.5804998874664307,
        1.0
      ],
      "min": [
        -1.0,
        -1.0,
        -0.5805017948150635,
        1.0
      ],
      "type": "VEC4"
    },
    {
      "bufferView": 1,
      "componentType": 5126,
      "count": 1160,
      "max": [
        0.9851146340370178,
        0.8452460169792175
      ],
      "min": [
        0.004999999888241291,
        0.004999999888241291
      ],
      "type": "VEC2"
    },
    {
      "bufferView": 0,
      "componentType": 5125,
      "count": 5952,
      "type": "SCALAR"
    },
    {
      "bufferView": 2,
      "byteOffset": 27840,
      "componentType": 5126,
      "count": 2801,
      "max": [
        180.64634704589844,
        45.61368179321289,
        238.7567138671875
      ],
      "min": [
        84.26210021972656,
        -54.1331901550293,
        61.137420654296875
      ],
      "type": "VEC3"
    },
    {
      "bufferView": 2,
      "byteOffset": 61452,
      "componentType": 5126,
      "count": 2801,
      "max": [
        0.9957882165908813,
        0.9998751878738403,
        0.9992373585700989
      ],
      "min": [
        -0.999069333076477,
        -0.9994279146194458,
        -0.9994589686393738
      ],
      "type": "VEC3"
    },
    {
      "bufferView": 3,
      "byteOffset": 18560,
      "componentType": 5126,
      "count": 2801,
      "max": [
        0.9956361055374146,
        0.9960036277770996,
        0.9997329115867615,
        1.0
      ],
      "min": [
        -0.9991934895515442,
        -0.9985697865486145,
        -0.9867268204689026,
        -1.0
      ],
      "type": "VEC4"
    },
    {
      "bufferView": 1,
      "byteOffset": 9280,
      "componentType": 5126,
      "count": 2801,
      "max": [
        0.9889475703239441,
        0.9949999451637268
      ],
      "min": [
        0.005000007338821888,
        0.00990070216357708
      ],
      "type": "VEC2"
    },
    {
      "bufferView": 0,
      "byteOffset": 23808,
      "componentType": 5125,
      "count": 14865,
      "type": "SCALAR"
    },
    {
      "bufferView": 2,
      "byteOffset": 95064,
      "componentType": 5126,
      "count": 1575,
      "max": [
        -15.285551071166992,
        -152.73025512695313,
        201.43637084960938
      ],
      "min": [
        -109.2830810546875,
        -236.02316284179688,
        151.38436889648438
      ],
      "type": "VEC3"
    },
    {
      "bufferView": 2,
      "byteOffset": 113964,
      "componentType": 5126,
      "count": 1575,
      "max": [
        0.9988539814949036,
        0.9988413453102112,
        0.9965474009513855
      ],
      "min": [
        -0.9977856278419495,
        -0.998357892036438,
        -0.9991733431816101
      ],
      "type": "VEC3"
    },
    {
      "bufferView": 3,
      "byteOffset": 63376,
      "componentType": 5126,
      "count": 1575,
      "max": [
        0.9994071125984192,
        0.9996749758720398,
        0.9996989369392395,
        1.0
      ],
      "min": [
        -0.9978442788124084,
        -0.9997097253799438,
        -0.9990946650505066,
        1.0
      ],
      "type": "VEC4"
    },
    {
      "bufferView": 1,
      "byteOffset": 31688,
      "componentType": 5126,
      "count": 1575,
      "max": [
        0.7233141660690308,
        0.9221343398094177
      ],
      "min": [
        0.6137926578521729,
        0.8549279570579529
      ],
      "type": "VEC2"
    },
    {
      "bufferView": 0,
      "byteOffset": 83268,
      "componentType": 5125,
      "count": 7182,
      "type": "SCALAR"
    }
  ],
  "asset": {
    "extras": {
      "author": "Warkarma (https://sketchfab.com/warkarma)",
      "license": "CC-BY-4.0 (http://creativecommons.org/licenses/by/4.0/)",
      "source": "https://sketchfab.com/3d-models/sundae-sketchfab-low-poly-challenge-desserts-523838ecb26b404d948b393a3dcc439e",
      "title": "Sundae - Sketchfab Low Poly Challenge: Desserts"
    },
    "generator": "Sketchfab-12.65.0",
    "version": "2.0"
  },
  "bufferViews": [
    {
      "buffer": 0,
      "byteLength": 111996,
      "name": "floatBufferViews",
      "target": 34963
    },
    {
      "buffer": 0,
      "byteLength": 44288,
      "byteOffset": 111996,
      "byteStride": 8,
      "name": "floatBufferViews",
      "target": 34962
    },
    {
      "buffer": 0,
      "byteLength": 132864,
      "byteOffset": 156284,
      "byteStride": 12,
      "name": "floatBufferViews",
      "target": 34962
    },
    {
      "buffer": 0,
      "byteLength": 88576,
      "byteOffset": 289148,
      "byteStride": 16,
      "name": "floatBufferViews",
      "target": 34962
    }
  ],
  "buffers": [
    {
      "byteLength": 377724,
      "uri": "scene.bin"
    }
  ],
  "extensionsUsed": [
    "KHR_materials_clearcoat",
    "KHR_materials_transmission"
  ],
  "images": [
    {
      "uri": "textures/Glass_baseColor.png"
    },
    {
      "uri": "textures/Glass_metallicRoughness.png"
    },
    {
      "uri": "textures/Glass_normal.png"
    },
    {
      "uri": "textures/Glass_transmission.png"
    },
    {
      "uri": "textures/Ice-Cream_baseColor.png"
    },
    {
      "uri": "textures/Ice-Cream_metallicRoughness.png"
    },
    {
      "uri": "textures/Ice-Cream_normal.png"
    },
    {
      "uri": "textures/Caramel_baseColor.png"
    },
    {
      "uri": "textures/Caramel_metallicRoughness.png"
    },
    {
      "uri": "textures/Caramel_normal.png"
    }
  ],
  "materials": [
    {
      "alphaMode": "BLEND",
      "doubleSided": true,
      "extensions": {
        "KHR_materials_clearcoat": {
          "clearcoatFactor": 1.0,
          "clearcoatRoughnessFactor": 0.04
        },
        "KHR_materials_transmission": {
          "transmissionFactor": 1.0,
          "transmissionTexture": {
            "index": 3
          }
        }
      },
      "name": "Glass",
      "normalTexture": {
        "index": 2
      },
      "pbrMetallicRoughness": {
        "baseColorFactor": [
          0.06725368186183119,
          0.06725368186183119,
          0.06725368186183119,
          1.0
        ],
        "baseColorTexture": {
          "index": 0
        },
        "metallicRoughnessTexture": {
          "index": 1
        },
        "roughnessFactor": 0.0
      }
    },
    {
      "doubleSided": true,
      "name": "Ice-Cream",
      "normalTexture": {
        "index": 6
      },
      "occlusionTexture": {
        "index": 5
      },
      "pbrMetallicRoughness": {
        "baseColorTexture": {
          "index": 4
        },
        "metallicFactor": 0.0,
        "metallicRoughnessTexture": {
          "index": 5
        }
      }
    },
    {
      "doubleSided": true,
      "name": "Caramel",
      "normalTexture": {
        "index": 9,
        "scale": 0.7502096883905759
      },
      "occlusionTexture": {
        "index": 8
      },
      "pbrMetallicRoughness": {
        "baseColorTexture": {
          "index": 7
        },
        "metallicFactor": 0.0,
        "metallicRoughnessTexture": {
          "index": 8
        }
      }
    }
  ],
  "meshes": [
    {
      "name": "Glass_LP_Glass_0",
      "primitives": [
        {
          "attributes": {
            "NORMAL": 1,
            "POSITION": 0,
            "TANGENT": 2,
            "TEXCOORD_0": 3
          },
          "indices": 4,
          "material": 0,
          "mode": 4
        }
      ]
    },
    {
      "name": "Ice_LP_Ice-Cream_0",
      "primitives": [
        {
          "attributes": {
            "NORMAL": 6,
            "POSITION": 5,
            "TANGENT": 7,
            "TEXCOORD_0": 8
          },
          "indices": 9,
          "material": 1,
          "mode": 4
        }
      ]
    },
    {
      "name": "GeoSphere003_Caramel_0",
      "primitives": [
        {
          "attributes": {
            "NORMAL": 11,
            "POSITION": 10,
            "TANGENT": 12,
            "TEXCOORD_0": 13
          },
          "indices": 14,
          "material": 2,
          "mode": 4
        }
      ]
    }
  ],
  "nodes": [
    {
      "children": [
        1
      ],
      "matrix": [
        0.001683429116383195,
        0.0,
        0.0,
        0.0,
        0.0,
        3.7379635306660107e-19,
        -0.001683429116383195,
        0.0,
        0.0,
        0.001683429116383195,
        3.7379635306660107e-19,
        0.0,
        0.0,
        0.0,
        0.0,
        1.0
      ],
      "name": "Sketchfab_model"
    },
    {
      "children": [
        2
      ],
      "matrix": [
        1.0,
        0.0,
        0.0,
        0.0,
        0.0,
        0.0,
        1.0,
        0.0,
        0.0,
        -1.0,
        0.0,
        0.0,
        0.0,
        0.0,
        0.0,
        1.0
      ],
      "name": "d29a1870beb14299ac6188a85949259c.fbx"
    },
    {
      "children": [
        3,
        6,
        9
      ],
      "name": "RootNode"
    },
    {
      "children": [
        4
      ],
      "matrix": [
        1.0,
        0.0,
        0.0,
        0.0,
        0.0,
        2.220446049250313e-16,
        -1.0,
        0.0,
        0.0,
        1.0,
        2.220446049250313e-16,
        0.0,
        0.0,
        0.9718780517578125,
        -0.00022126741532702,
        1.0
      ],
      "name": "Glass_LP"
    },
    {
      "children": [
        5
      ],
      "matrix": [
        1.0,
        0.0,
        -0.0,
        0.0,
        0.0,
        1.0,
        0.0,
        0.0,
        0.0,
        0.0,
        1.0,
        0.0,
        -132.86199951171875,
        -0.00022125244140625,
        0.0,
        1.0
      ],
      "name": "Object_4"
    },
    {
      "mesh": 0,
      "name": "Glass_LP_Glass_0"
    },
    {
      "children": [
        7
      ],
      "matrix": [
        1.0,
        0.0,
        0.0,
        0.0,
        0.0,
        2.220446049250313e-16,
        -1.0,
        0.0,
        0.0,
        1.0,
        2.220446049250313e-16,
        0.0,
        0.0,
        149.6044921875,
        4.259754180908203,
        1.0
      ],
      "name": "Ice_LP"
    },
    {
      "children": [
        8
      ],
      "matrix": [
        1.0,
        0.0,
        -0.0,
        0.0,
        0.0,
        1.0,
        0.0,
        0.0,
        0.0,
        0.0,
        1.0,
        0.0,
        -132.4542236328125,
        4.259754180908203,
        -149.9470672607422,
        1.0
      ],
      "name": "Object_7"
    },
    {
      "mesh": 1,
      "name": "Ice_LP_Ice-Cream_0"
    },
    {
      "children": [
        10
      ],
      "matrix": [
        1.0,
        0.0,
        0.0,
        0.0,
        0.0,
        2.220446049250313e-16,
        -1.0,
        0.0,
        0.0,
        1.0,
        2.220446049250313e-16,
        0.0,
        61.809932708740234,
        -0.3425750732421875,
        -190.96273803710938,
        1.0
      ],
      "name": "GeoSphere003"
    },
    {
      "mesh": 2,
      "name": "GeoSphere003_Caramel_0"
    }
  ],
  "samplers": [
    {
      "magFilter": 9729,
      "minFilter": 9987,
      "wrapS": 10497,
      "wrapT": 10497
    }
  ],
  "scene": 0,
  "scenes": [
    {
      "name": "Sketchfab_Scene",
      "nodes": [
        0
      ]
    }
  ],
  "textures": [
    {
      "sampler": 0,
      "source": 0
    },
    {
      "sampler": 0,
      "source": 1
    },
    {
      "sampler": 0,
      "source": 2
    },
    {
      "sampler": 0,
      "source": 3
    },
    {
      "sampler": 0,
      "source": 4
    },
    {
      "sampler": 0,
      "source": 5
    },
    {
      "sampler": 0,
      "source": 6
    },
    {
      "sampler": 0,
      "source": 7
    },
    {
      "sampler": 0,
      "source": 8
    },
    {
      "sampler": 0,
      "source": 9
    }
  ]
}
